<svg height="1054" width="720" xmlns="http://www.w3.org/2000/svg">
<rect height="1054" fill="#555" width="720"></rect>
<text fill="#7f7" font-family="Courier New" font-size="12" xml:space="preserve">
<tspan x="10" y="26">15 megabytes installed</tspan>
<tspan x="10" y="42"></tspan>
<tspan x="10" y="58">node_modules</tspan>
<tspan x="10" y="74">└─┬ tabtab@2.2.2 </tspan>
<tspan x="10" y="90">  ├─┬ debug@2.6.3 </tspan>
<tspan x="10" y="106">  │ └── ms@0.7.2 </tspan>
<tspan x="10" y="122">  ├─┬ inquirer@1.2.3 </tspan>
<tspan x="10" y="138">  │ ├── ansi-escapes@1.4.0 </tspan>
<tspan x="10" y="154">  │ ├─┬ chalk@1.1.3 </tspan>
<tspan x="10" y="170">  │ │ ├── ansi-styles@2.2.1 </tspan>
<tspan x="10" y="186">  │ │ ├── escape-string-regexp@1.0.5 </tspan>
<tspan x="10" y="202">  │ │ ├── has-ansi@2.0.0 </tspan>
<tspan x="10" y="218">  │ │ └── supports-color@2.0.0 </tspan>
<tspan x="10" y="234">  │ ├─┬ cli-cursor@1.0.2 </tspan>
<tspan x="10" y="250">  │ │ └─┬ restore-cursor@1.0.1 </tspan>
<tspan x="10" y="266">  │ │   ├── exit-hook@1.1.1 </tspan>
<tspan x="10" y="282">  │ │   └── onetime@1.1.0 </tspan>
<tspan x="10" y="298">  │ ├── cli-width@2.1.0 </tspan>
<tspan x="10" y="314">  │ ├─┬ external-editor@1.1.1 </tspan>
<tspan x="10" y="330">  │ │ ├── extend@3.0.0 </tspan>
<tspan x="10" y="346">  │ │ ├─┬ spawn-sync@1.0.15 </tspan>
<tspan x="10" y="362">  │ │ │ ├─┬ concat-stream@1.6.0 </tspan>
<tspan x="10" y="378">  │ │ │ │ └── typedarray@0.0.6 </tspan>
<tspan x="10" y="394">  │ │ │ └── os-shim@0.1.3 </tspan>
<tspan x="10" y="410">  │ │ └─┬ tmp@0.0.29 </tspan>
<tspan x="10" y="426">  │ │   └── os-tmpdir@1.0.2 </tspan>
<tspan x="10" y="442">  │ ├── figures@1.7.0 </tspan>
<tspan x="10" y="458">  │ ├── lodash@4.17.4 </tspan>
<tspan x="10" y="474">  │ ├── mute-stream@0.0.6 </tspan>
<tspan x="10" y="490">  │ ├─┬ pinkie-promise@2.0.1 </tspan>
<tspan x="10" y="506">  │ │ └── pinkie@2.0.4 </tspan>
<tspan x="10" y="522">  │ ├─┬ run-async@2.3.0 </tspan>
<tspan x="10" y="538">  │ │ └── is-promise@2.1.0 </tspan>
<tspan x="10" y="554">  │ ├── rx@4.1.0 </tspan>
<tspan x="10" y="570">  │ ├─┬ string-width@1.0.2 </tspan>
<tspan x="10" y="586">  │ │ ├── code-point-at@1.1.0 </tspan>
<tspan x="10" y="602">  │ │ └─┬ is-fullwidth-code-point@1.0.0 </tspan>
<tspan x="10" y="618">  │ │   └── number-is-nan@1.0.1 </tspan>
<tspan x="10" y="634">  │ ├─┬ strip-ansi@3.0.1 </tspan>
<tspan x="10" y="650">  │ │ └── ansi-regex@2.1.1 </tspan>
<tspan x="10" y="666">  │ └── through@2.3.8 </tspan>
<tspan x="10" y="682">  ├── lodash.difference@4.5.0 </tspan>
<tspan x="10" y="698">  ├── lodash.uniq@4.5.0 </tspan>
<tspan x="10" y="714">  ├── minimist@1.2.0 </tspan>
<tspan x="10" y="730">  ├─┬ mkdirp@0.5.1 </tspan>
<tspan x="10" y="746">  │ └── minimist@0.0.8 </tspan>
<tspan x="10" y="762">  ├─┬ npmlog@2.0.4 </tspan>
<tspan x="10" y="778">  │ ├── ansi@0.3.1 </tspan>
<tspan x="10" y="794">  │ ├─┬ are-we-there-yet@1.1.2 </tspan>
<tspan x="10" y="810">  │ │ ├── delegates@1.0.0 </tspan>
<tspan x="10" y="826">  │ │ └─┬ readable-stream@2.2.9 </tspan>
<tspan x="10" y="842">  │ │   ├── buffer-shims@1.0.0 </tspan>
<tspan x="10" y="858">  │ │   ├── core-util-is@1.0.2 </tspan>
<tspan x="10" y="874">  │ │   ├── inherits@2.0.3 </tspan>
<tspan x="10" y="890">  │ │   ├── isarray@1.0.0 </tspan>
<tspan x="10" y="906">  │ │   ├── process-nextick-args@1.0.7 </tspan>
<tspan x="10" y="922">  │ │   ├── string_decoder@1.0.0 </tspan>
<tspan x="10" y="938">  │ │   └── util-deprecate@1.0.2 </tspan>
<tspan x="10" y="954">  │ └─┬ gauge@1.2.7 </tspan>
<tspan x="10" y="970">  │   ├── has-unicode@2.0.1 </tspan>
<tspan x="10" y="986">  │   ├── lodash.pad@4.5.1 </tspan>
<tspan x="10" y="1002">  │   ├── lodash.padend@4.6.1 </tspan>
<tspan x="10" y="1018">  │   └── lodash.padstart@4.6.1 </tspan>
<tspan x="10" y="1034">  └── object-assign@4.1.1</tspan>
</text>
</svg>
